<svg width="125" height="40" viewBox="0 0 125 40" fill="none" xmlns="http://www.w3.org/2000/svg">
<rect x="1" y="1" width="123" height="38" stroke="#00CDCD" stroke-width="2"/>
<path d="M9.07227 13.2734H12.3418L15.875 21.9043H16.0156L19.5488 13.2734H22.8184V26H20.252V17.668H20.1465L16.8242 25.9473H15.0664L11.7441 17.6328H11.6387V26H9.07227V13.2734ZM29.9544 26.1934C27.0364 26.1934 25.2434 24.2949 25.2434 21.2715C25.2434 18.3184 27.054 16.332 29.8489 16.332C32.3626 16.332 34.3313 17.9141 34.3313 21.166V21.9043H27.8098C27.8098 23.3457 28.6712 24.2422 30.0071 24.2422C30.886 24.2422 31.5188 23.8555 31.7825 23.2754H34.261C33.8919 25.0332 32.3098 26.1934 29.9544 26.1934ZM27.8098 20.2695H31.8704C31.8704 19.1094 31.0618 18.2832 29.9016 18.2832C28.7063 18.2832 27.8538 19.1709 27.8098 20.2695ZM40.2017 26.1582C38.022 26.1582 36.317 24.418 36.317 21.2363C36.317 17.9668 38.0923 16.332 40.2017 16.332C41.8013 16.332 42.5572 17.2812 42.9088 18.0547H42.9966V13.2734H45.5982V26H43.0318V24.4707H42.9088C42.5396 25.2617 41.7486 26.1582 40.2017 26.1582ZM41.0103 24.084C42.3111 24.084 43.0494 22.9414 43.0494 21.2188C43.0494 19.4961 42.3111 18.4062 41.0103 18.4062C39.692 18.4062 38.9888 19.5488 38.9888 21.2188C38.9888 22.9062 39.692 24.084 41.0103 24.084ZM48.41 26V16.4551H51.0116V26H48.41ZM49.7108 15.207C48.9198 15.207 48.287 14.6094 48.287 13.8887C48.287 13.1504 48.9198 12.5527 49.7108 12.5527C50.4842 12.5527 51.117 13.1504 51.117 13.8887C51.117 14.6094 50.4842 15.207 49.7108 15.207ZM56.4425 13.2734V26H53.8058V13.2734H56.4425ZM61.8559 20.4805V26H59.2543V16.4551H61.7328V18.125H61.8383C62.2777 17.0176 63.2973 16.332 64.7035 16.332C66.6898 16.332 68.0082 17.6855 67.9906 19.918V26H65.4066V20.375C65.4066 19.1973 64.7562 18.4941 63.684 18.4941C62.5941 18.4941 61.8559 19.2148 61.8559 20.4805ZM76.1813 19.2852C76.0759 18.6172 75.4782 18.1777 74.6169 18.1777C73.7731 18.1777 73.1227 18.582 73.1403 19.1621C73.1227 19.584 73.4743 19.918 74.3708 20.1113L76.0759 20.4629C77.9216 20.8496 78.818 21.6758 78.8356 23.0469C78.818 24.9277 77.1305 26.1934 74.5993 26.1934C72.0153 26.1934 70.5036 25.0332 70.2927 23.1699H72.9118C73.0348 23.9258 73.6501 24.3125 74.5993 24.3125C75.5485 24.3125 76.1813 23.9258 76.1813 23.3105C76.1813 22.8184 75.777 22.5195 74.8805 22.3262L73.2985 22.0098C71.488 21.6582 70.5387 20.709 70.5563 19.3027C70.5387 17.4746 72.1208 16.332 74.5817 16.332C76.9899 16.332 78.4841 17.4746 78.6247 19.2852H76.1813ZM81.1552 26V16.4551H83.7568V26H81.1552ZM82.456 15.207C81.665 15.207 81.0322 14.6094 81.0322 13.8887C81.0322 13.1504 81.665 12.5527 82.456 12.5527C83.2295 12.5527 83.8623 13.1504 83.8623 13.8887C83.8623 14.6094 83.2295 15.207 82.456 15.207ZM90.7873 29.7793C88.1506 29.7793 86.5334 28.6016 86.3752 26.791H88.9416C89.0823 27.5469 89.803 27.8984 90.8401 27.8984C92.053 27.8984 92.8616 27.3887 92.8616 26.0527V24.3125H92.7385C92.387 25.0859 91.5432 25.8594 90.0139 25.8594C87.8518 25.8594 86.1291 24.3477 86.1291 21.166C86.1291 17.9316 87.9045 16.332 90.0139 16.332C91.6135 16.332 92.387 17.2812 92.7385 18.0547H92.844V16.4551H95.428V26.1055C95.428 28.5312 93.4944 29.7793 90.7873 29.7793ZM90.8225 23.9082C92.1233 23.9082 92.8616 22.8887 92.8616 21.2012C92.8616 19.4961 92.1233 18.4062 90.8225 18.4062C89.5041 18.4062 88.801 19.5488 88.801 21.2012C88.801 22.8535 89.5041 23.9082 90.8225 23.9082ZM100.771 20.4805V26H98.1695V13.2734H100.701V18.125H100.806C101.246 17.0176 102.212 16.332 103.654 16.332C105.64 16.332 106.959 17.668 106.959 19.918V26H104.357V20.375C104.357 19.1973 103.724 18.4941 102.634 18.4941C101.544 18.4941 100.771 19.2148 100.771 20.4805ZM114.71 16.4551V18.4062H112.917V23.0645C112.917 23.8203 113.286 24.0137 113.813 24.0312C114.077 24.0312 114.534 24.0137 114.85 23.9785V26.0352C114.569 26.0879 114.112 26.123 113.462 26.123C111.581 26.123 110.298 25.2793 110.315 23.4336V18.4062H108.997V16.4551H110.315V14.1699H112.917V16.4551H114.71Z" fill="#00CDCD"/>
</svg>
